<?xml version="1.0" encoding="UTF-8"?>
<svg width="18px" height="18px" viewBox="0 0 18 18" version="1.1" xmlns="http://www.w3.org/2000/svg" xmlns:xlink="http://www.w3.org/1999/xlink">
    <!-- Generator: sketchtool 52.4 (67378) - http://www.bohemiancoding.com/sketch -->
    <title>18A1051A-BE41-4BB3-AA51-047CA5CA1C52</title>
    <desc>Created with sketchtool.</desc>
    <g id="Page-1" stroke="none" stroke-width="1" fill="none" fill-rule="evenodd">
        <g id="Single" transform="translate(-1262.000000, -23.000000)">
            <g id="Group">
                <g id="pictoheader/add" transform="translate(1262.000000, 23.000000)">
                    <rect id="Background" x="0" y="0" width="18" height="18"></rect>
                    <path d="M9,4.83333333 C8.54166667,4.83333333 8.16666667,5.20833333 8.16666667,5.66666667 L8.16666667,8.16666667 L5.66666667,8.16666667 C5.20833333,8.16666667 4.83333333,8.54166667 4.83333333,9 C4.83333333,9.45833333 5.20833333,9.83333333 5.66666667,9.83333333 L8.16666667,9.83333333 L8.16666667,12.3333333 C8.16666667,12.7916667 8.54166667,13.1666667 9,13.1666667 C9.45833333,13.1666667 9.83333333,12.7916667 9.83333333,12.3333333 L9.83333333,9.83333333 L12.3333333,9.83333333 C12.7916667,9.83333333 13.1666667,9.45833333 13.1666667,9 C13.1666667,8.54166667 12.7916667,8.16666667 12.3333333,8.16666667 L9.83333333,8.16666667 L9.83333333,5.66666667 C9.83333333,5.20833333 9.45833333,4.83333333 9,4.83333333 Z M9,0.666666667 C4.4,0.666666667 0.666666667,4.4 0.666666667,9 C0.666666667,13.6 4.4,17.3333333 9,17.3333333 C13.6,17.3333333 17.3333333,13.6 17.3333333,9 C17.3333333,4.4 13.6,0.666666667 9,0.666666667 Z M9,15.6666667 C5.325,15.6666667 2.33333333,12.675 2.33333333,9 C2.33333333,5.325 5.325,2.33333333 9,2.33333333 C12.675,2.33333333 15.6666667,5.325 15.6666667,9 C15.6666667,12.675 12.675,15.6666667 9,15.6666667 Z" id="Shape" fill="#6E6E6E" fill-rule="nonzero"></path>
                </g>
            </g>
        </g>
    </g>
</svg>