<?xml version="1.0" encoding="UTF-8"?>
<svg width="16px" height="16px" viewBox="0 0 16 16" version="1.1" xmlns="http://www.w3.org/2000/svg" xmlns:xlink="http://www.w3.org/1999/xlink">
    <!-- Generator: sketchtool 52.4 (67378) - http://www.bohemiancoding.com/sketch -->
    <title>DE0455FE-8071-4637-AB70-968D5F5B3F21</title>
    <desc>Created with sketchtool.</desc>
    <g id="Page-1" stroke="none" stroke-width="1" fill="none" fill-rule="evenodd">
        <g id="Single" transform="translate(-1305.000000, -24.000000)">
            <g id="Group">
                <g id="pictoheader/feed" transform="translate(1305.000000, 24.000000)">
                    <rect id="Background" x="0" y="0" width="16" height="16"></rect>
                    <path d="M1.33333333,8.83333333 L6.33333333,8.83333333 C6.79166667,8.83333333 7.16666667,8.45833333 7.16666667,8 L7.16666667,1.33333333 C7.16666667,0.875 6.79166667,0.5 6.33333333,0.5 L1.33333333,0.5 C0.875,0.5 0.5,0.875 0.5,1.33333333 L0.5,8 C0.5,8.45833333 0.875,8.83333333 1.33333333,8.83333333 Z M1.33333333,15.5 L6.33333333,15.5 C6.79166667,15.5 7.16666667,15.125 7.16666667,14.6666667 L7.16666667,11.3333333 C7.16666667,10.875 6.79166667,10.5 6.33333333,10.5 L1.33333333,10.5 C0.875,10.5 0.5,10.875 0.5,11.3333333 L0.5,14.6666667 C0.5,15.125 0.875,15.5 1.33333333,15.5 Z M9.66666667,15.5 L14.6666667,15.5 C15.125,15.5 15.5,15.125 15.5,14.6666667 L15.5,8 C15.5,7.54166667 15.125,7.16666667 14.6666667,7.16666667 L9.66666667,7.16666667 C9.20833333,7.16666667 8.83333333,7.54166667 8.83333333,8 L8.83333333,14.6666667 C8.83333333,15.125 9.20833333,15.5 9.66666667,15.5 Z M8.83333333,1.33333333 L8.83333333,4.66666667 C8.83333333,5.125 9.20833333,5.5 9.66666667,5.5 L14.6666667,5.5 C15.125,5.5 15.5,5.125 15.5,4.66666667 L15.5,1.33333333 C15.5,0.875 15.125,0.5 14.6666667,0.5 L9.66666667,0.5 C9.20833333,0.5 8.83333333,0.875 8.83333333,1.33333333 Z" id="Shape" fill="#6E6E6E" fill-rule="nonzero"></path>
                </g>
            </g>
        </g>
    </g>
</svg>