<?xml version="1.0" encoding="UTF-8"?>
<svg width="130px" height="23px" viewBox="0 0 130 23" version="1.1" xmlns="http://www.w3.org/2000/svg" xmlns:xlink="http://www.w3.org/1999/xlink">
    <!-- Generator: sketchtool 52.4 (67378) - http://www.bohemiancoding.com/sketch -->
    <title>C964E4B5-BCF0-4C2A-A69E-5B6CF65B7C74</title>
    <desc>Created with sketchtool.</desc>
    <g id="Page-1" stroke="none" stroke-width="1" fill="none" fill-rule="evenodd">
        <g id="Single" transform="translate(-65.000000, -14.000000)" fill="#FFFFFF">
            <g id="TOPBAR">
                <g id="logo_lumiere" transform="translate(65.000000, 14.000000)">
                    <g transform="translate(0.714286, 0.571429)">
                        <path d="M101.990812,9.46392935 C101.990812,9.54339417 102.108948,9.58312658 102.148326,9.50366176 C102.758696,8.56995014 103.940057,7.37797787 105.692409,7.37797787 C107.641654,7.37797787 108.015751,9.44406314 107.996062,10.2585775 C107.976373,11.0730919 107.366003,12.5034586 106.046817,12.5034586 C104.727631,12.5034586 104.471669,11.7684091 104.373222,11.5498808 C104.294465,11.3313526 104.15664,9.92085205 103.428134,10.0400493 C102.699628,10.1393803 102.581492,11.0134933 102.581492,11.0532257 C102.581492,11.0532257 102.581492,11.0532257 102.581492,11.0532257 L102.581492,18.0063973 C102.581492,18.0858621 102.620871,18.1851932 102.679939,18.2249256 C102.975279,18.46332 103.782542,19.1189048 103.821921,19.3175668 C103.861299,19.5559613 103.782542,19.9731516 103.625027,20.012884 C103.467513,20.0526164 97.6197769,20.112215 97.3244367,20.012884 C97.0290965,19.9135529 97.0290965,19.3175668 97.3244367,19.0593062 C97.5410195,18.8805103 97.9544957,18.4434538 98.1710785,18.2249256 C98.2498359,18.1454607 98.2892146,18.0262635 98.2892146,17.9269325 C98.308904,17.0130871 98.2892146,12.7219869 98.2892146,11.7882753 C98.2892146,11.6690781 98.2498359,11.569747 98.1513892,11.4902822 C97.8166703,11.1724229 96.9700284,10.4175072 96.9109604,10.2585775 C96.832203,10.0599155 96.8125137,9.6824576 97.0094071,9.62285899 C97.2063006,9.56326037 101.104791,7.61637232 101.222927,7.55677371 C101.341063,7.4971751 101.990812,7.5170413 101.990812,7.73556955 L101.990812,9.46392935 Z" id="Path"></path>
                        <ellipse id="Oval" cx="78.3242179" cy="2.88821564" rx="2.81557646" ry="2.84086725"></ellipse>
                        <path d="M80.9429009,17.8673339 C80.9429009,17.9467987 80.9822796,18.0461297 81.0413476,18.0858621 C81.3366878,18.3242566 82.143951,18.9798413 82.1833297,19.1785034 C82.2227084,19.4168978 82.143951,19.8340881 81.9864362,19.8738205 C81.8289215,19.9135529 75.9811857,19.9731516 75.6858455,19.8738205 C75.3905054,19.7744895 75.3905054,19.1785034 75.6858455,18.9202427 C75.9024284,18.7414469 76.3159046,18.3043904 76.5324874,18.0858621 C76.6112448,18.0063973 76.6506235,17.8872001 76.6506235,17.7878691 C76.6703128,16.8740237 76.6506235,12.5829235 76.6506235,11.6492119 C76.6506235,11.5300146 76.6112448,11.4306836 76.5127981,11.3512188 C76.1780792,11.0333595 75.3314373,10.2784437 75.2723693,10.1195141 C75.1936119,9.92085205 75.1739226,9.54339417 75.370816,9.48379555 C75.5677095,9.42419694 80.037191,7.35811167 80.1553271,7.27864685 C80.2734631,7.19918203 80.9232116,7.23891444 80.9232116,7.45744269 L80.9429009,17.8673339 Z" id="Path"></path>
                        <path d="M26.0293152,4.11992032 C26.2262087,4.39804719 26.3246554,4.71590646 26.3246554,5.05363194 L26.3246554,18.0063973 L25.5173923,18.9003765 C25.1236053,19.337433 25.4386349,20.0327502 26.0096259,20.0327502 L31.365128,20.0327502 C31.7982936,20.0327502 32.0148764,19.5360951 31.7589149,19.1983696 L30.7744476,17.9666649 L30.7744476,13.3775716 L30.7744476,1.15985584 C30.7744476,0.524137296 30.3019033,0.226144227 29.7309123,0.484404887 C29.7309123,0.484404887 25.5961496,2.43129293 25.4977029,2.51075775 C25.044848,2.80875082 24.9660906,3.48420178 25.8127324,4.00072309 L26.0293152,4.11992032 Z" id="Path"></path>
                        <path d="M120.321593,15.5628541 C120.065631,15.2251287 119.711223,15.4635231 119.49464,15.642319 C119.474951,15.6621852 119.474951,15.6621852 119.455261,15.6820514 C119.435572,15.7019176 119.415883,15.7217838 119.396193,15.74165 C119.376504,15.7615162 119.356815,15.7813824 119.356815,15.7813824 C118.726756,16.3773685 117.97856,16.7945588 116.994093,16.7746926 C114.631372,16.7349602 114.040691,15.1059314 114.040691,15.1059314 C114.040691,15.1059314 118.037629,12.7617193 119.455261,11.8081415 C120.045942,11.4108174 120.242835,10.4771058 119.908116,9.56326037 C119.593087,8.70901358 118.923649,8.03356262 118.116386,7.61637232 C117.269744,7.17931582 116.304966,6.92105516 115.28112,6.92105516 C111.796106,6.92105516 108.980529,9.84138724 108.980529,13.4371703 C108.980529,17.0329533 111.461387,19.9532854 115.28112,19.9532854 C116.304966,19.9532854 117.230365,19.6950247 118.077007,19.238102 C120.321593,17.9666649 120.616933,15.9800444 120.321593,15.5628541 Z M113.292496,13.3775716 C113.194049,13.0001138 113.075913,11.9472049 113.134981,10.2387113 L113.134981,10.2188451 C113.134981,10.1791127 113.134981,10.1195141 113.134981,10.0599155 C113.134981,10.0400493 113.134981,10.0201831 113.134981,10.0003169 C113.213739,9.04673905 113.883177,8.31168948 114.710129,8.31168948 C115.359877,8.31168948 115.911179,8.78847839 116.167141,9.46392935 C116.167141,9.46392935 116.167141,9.46392935 116.167141,9.46392935 C116.206519,9.58312658 116.226209,9.7023238 116.265587,9.84138724 C116.364034,10.2784437 116.423102,10.8148313 116.423102,11.3909512 C116.423102,11.8280077 114.3951,13.119311 113.666594,13.5166351 C113.509079,13.6159661 113.331875,13.5365013 113.292496,13.3775716 Z" id="Shape" fill-rule="nonzero"></path>
                        <path d="M51.802669,11.8876063 L51.802669,17.2117491 C51.802669,17.5296084 51.7239116,17.8276015 51.5663968,18.1057283 L50.8378911,19.4168978 C50.7000656,19.6751585 50.8772697,19.9930178 51.1726099,19.9930178 L56.8825202,19.9930178 C57.2566178,19.9930178 57.4732006,19.5758275 57.2763072,19.2579682 L56.5674907,18.1851932 C56.3902866,17.9269325 56.3115292,17.6289394 56.3115292,17.3309464 C56.2918399,16.1191079 56.2721505,12.8610503 56.2721505,11.4505498 C56.2721505,9.6824576 57.2959965,9.10633767 58.004813,9.10633767 C58.7136294,9.10633767 59.8359221,9.64272519 59.8359221,11.4505498 L59.8359221,17.5693408 C59.8359221,17.8474677 59.7571647,18.1057283 59.6193393,18.3242566 L59.0483483,19.1983696 C58.8317655,19.5360951 59.0680376,19.9930178 59.4618245,19.9930178 L64.6991905,19.9930178 C65.1520455,19.9930178 65.408007,19.4764964 65.1520455,19.1189048 L64.6007438,18.3441228 C64.4432291,18.1057283 64.3447823,17.8276015 64.3447823,17.5494746 L64.3447823,11.2121554 C64.3447823,9.98045067 65.0142201,9.00700664 65.7821046,9.00700664 C66.5499891,9.00700664 67.0619121,9.56326037 67.2784949,10.3380423 C67.4753883,10.9737609 67.8297965,15.8012486 67.9282433,17.3706788 C67.9479326,17.688538 67.8691752,18.0063973 67.6919711,18.2845242 L67.0225334,19.2977006 C66.8256399,19.5956937 67.0422227,19.9930178 67.3966309,19.9930178 L72.8112011,19.9135529 C73.204988,19.9135529 73.4412601,19.436764 73.204988,19.1189048 L72.5355502,18.1653269 C72.3386567,17.8872001 72.24021,17.5693408 72.2205207,17.2316153 C72.181142,16.2383051 72.0826953,13.993424 71.9842485,12.7418531 C71.8661124,11.1128243 71.157296,8.49048533 68.8733319,7.65610473 C66.5893678,6.82172414 64.6598119,8.07329503 64.1675782,8.60968255 C63.8328593,8.96727423 63.6359659,9.22553489 63.5375191,9.36459833 C63.4981405,9.42419694 63.4390724,9.42419694 63.3996937,9.36459833 C63.1634216,9.00700664 62.3167797,7.9342316 60.4462918,7.4971751 C58.3395318,7.00051998 56.7446948,7.99383021 56.0555677,8.76861219 C56.016189,8.8282108 55.9177423,8.78847839 55.9177423,8.70901358 L55.9177423,7.97396401 C55.9177423,7.4971751 55.4255086,7.19918203 55.0120324,7.41771028 L50.8575804,9.54339417 C50.5031722,9.72219001 50.4244148,10.1989789 50.719755,10.4771058 L51.6648436,11.4306836 C51.743601,11.569747 51.802669,11.7286767 51.802669,11.8876063 Z" id="Path"></path>
                        <ellipse id="Oval" cx="13.5265806" cy="12.7219869" rx="6.28090133" ry="6.33731926"></ellipse>
                        <path d="M95.1192299,15.5628541 C94.8632684,15.2251287 94.5088602,15.4635231 94.2922774,15.642319 C94.2725881,15.6621852 94.2725881,15.6621852 94.2528987,15.6820514 C94.2332094,15.7019176 94.21352,15.7217838 94.1938307,15.74165 C94.1741413,15.7615162 94.154452,15.7813824 94.154452,15.7813824 C93.5243929,16.3773685 92.7761978,16.7945588 91.7917305,16.7746926 C89.429009,16.7349602 88.8383286,15.1059314 88.8383286,15.1059314 C88.8383286,15.1059314 92.8352658,12.7617193 94.2528987,11.8081415 C94.8435791,11.4108174 95.0404725,10.4771058 94.7057537,9.56326037 C94.3907241,8.70901358 93.7212864,8.03356262 92.9140232,7.61637232 C92.0673813,7.17931582 91.1026034,6.92105516 90.0787574,6.92105516 C86.5937432,6.92105516 83.7781667,9.84138724 83.7781667,13.4371703 C83.7781667,17.0329533 86.2590243,19.9532854 90.0787574,19.9532854 C91.1026034,19.9532854 92.0280026,19.6950247 92.8746445,19.238102 C95.1192299,17.9666649 95.4145701,15.9800444 95.1192299,15.5628541 Z M88.0901335,13.3775716 C87.9916867,13.0001138 87.8735506,11.9472049 87.9326187,10.2387113 L87.9326187,10.2188451 C87.9326187,10.1791127 87.9326187,10.1195141 87.9326187,10.0599155 C87.9326187,10.0400493 87.9326187,10.0201831 87.9326187,10.0003169 C88.0113761,9.04673905 88.6808138,8.31168948 89.5077664,8.31168948 C90.1575148,8.31168948 90.7088165,8.78847839 90.9647779,9.46392935 C90.9647779,9.46392935 90.9647779,9.46392935 90.9647779,9.46392935 C91.0041566,9.58312658 91.023846,9.7023238 91.0632247,9.84138724 C91.1616714,10.2784437 91.2207394,10.8148313 91.2207394,11.3909512 C91.2207394,11.8280077 89.1927368,13.119311 88.464231,13.5166351 C88.3067163,13.6159661 88.1295121,13.5365013 88.0901335,13.3775716 Z" id="Shape" fill-rule="nonzero"></path>
                        <path d="M47.9041785,19.5162289 C47.0575366,19.9731516 45.482389,20.0923488 44.3600963,19.7744895 C43.6512798,19.5758275 43.1196675,19.2182358 43.0409101,18.6818483 C43.0409101,18.6619821 43.0409101,18.6619821 43.0409101,18.6421159 C43.0212207,18.6023834 42.9424634,18.5825172 42.9030847,18.6222497 C42.2139576,19.3970316 40.6191205,20.4102081 38.5123605,19.8936867 C37.114417,19.5559613 36.2874644,18.9003765 35.8739882,18.4235876 C35.8739882,18.4235876 35.8542988,18.4037214 35.8542988,18.4037214 C35.0273463,17.3309464 34.6138701,15.9999106 34.6138701,14.6490087 L34.6138701,9.86125344 C34.6138701,9.58312658 34.5154233,9.30499971 34.3579086,9.06660526 L33.8066069,8.29182328 C33.5506454,7.9342316 33.8066069,7.41771028 34.2397725,7.41771028 L39.4771385,7.41771028 C39.8709254,7.41771028 40.1268869,7.87463298 39.9103041,8.21235846 L39.3393131,9.08647146 C39.2014876,9.30499971 39.1227303,9.58312658 39.1227303,9.84138724 L39.1227303,15.9601782 C39.1227303,17.7680029 40.2253336,18.3043904 40.9538394,18.3043904 C41.5642091,18.3043904 42.410851,17.8872001 42.6274338,16.6554954 C42.6668125,16.4568334 42.6865019,16.2184389 42.6865019,15.9601782 C42.6865019,14.5496777 42.6471232,11.2916202 42.6471232,10.0797817 C42.6471232,9.78178862 42.5486764,9.48379555 42.3911617,9.22553489 L41.6823452,8.15275985 C41.4854518,7.83490057 41.7020346,7.41771028 42.0761321,7.41771028 L47.7860424,7.41771028 C48.0813826,7.41771028 48.2782761,7.73556955 48.1207613,7.99383021 L47.3922555,9.30499971 C47.2347408,9.58312658 47.1559834,9.88111964 47.1559834,10.1989789 L47.1559834,15.5231217 C47.1559834,15.5628541 47.1559834,15.6025866 47.1559834,15.642319 C47.1559834,15.642319 47.1559834,15.642319 47.1559834,15.642319 C47.1953621,16.8938899 47.3528768,17.5296084 47.7072851,18.0461297 C47.8057318,18.2050594 47.9435572,18.3441228 48.0813826,18.5030524 C48.3964122,18.8209117 48.5145482,19.1785034 47.9041785,19.5162289 Z" id="Path"></path>
                        <path d="M4.43010282,22.0988355 L1.22073944,22.0988355 C0.610369722,22.0988355 0.0984467294,21.6021803 0.0984467294,20.9664618 L0.0984467294,4.8947023 C0.0984467294,4.27884996 0.590680376,3.76232864 1.22073944,3.76232864 L4.43010282,3.76232864 C4.5482389,3.76232864 4.64668563,3.86165966 4.64668563,3.98085689 L4.64668563,5.3118926 C4.64668563,5.43108982 4.5482389,5.53042085 4.43010282,5.53042085 L1.87048786,5.53042085 L1.87048786,20.2711446 L4.43010282,20.2711446 C4.5482389,20.2711446 4.64668563,20.3704757 4.64668563,20.4896729 L4.64668563,21.8207086 C4.64668563,21.9995044 4.5482389,22.0988355 4.43010282,22.0988355 Z" id="Path"></path>
                        <path d="M88.4248523,0.464538682 C88.0507548,0.385073864 87.6569678,0.623468319 87.5978998,0.683066932 C87.5388318,0.742665546 86.2787136,1.95450402 86.357471,2.51075775 C86.4756071,3.30540593 91.6342157,5.94761114 92.4217895,5.49068844 C92.7368191,5.3118926 92.5399256,4.69604025 92.4808576,4.61657544 C92.4414789,4.57684303 88.6217458,0.504271091 88.4248523,0.464538682 Z" id="Path"></path>
                        <path d="M124.161015,22.0988355 L127.370378,22.0988355 C127.980748,22.0988355 128.492671,21.6021803 128.492671,20.9664618 L128.492671,4.8947023 C128.492671,4.27884996 128.000438,3.76232864 127.370378,3.76232864 L124.161015,3.76232864 C124.042879,3.76232864 123.944432,3.86165966 123.944432,3.98085689 L123.944432,5.3118926 C123.944432,5.43108982 124.042879,5.53042085 124.161015,5.53042085 L126.72063,5.53042085 L126.72063,20.2711446 L124.161015,20.2711446 C124.042879,20.2711446 123.944432,20.3704757 123.944432,20.4896729 L123.944432,21.8207086 C123.944432,21.9995044 124.042879,22.0988355 124.161015,22.0988355 Z" id="Path"></path>
                    </g>
                </g>
            </g>
        </g>
    </g>
</svg>