<?xml version="1.0" encoding="UTF-8"?>
<svg width="14px" height="17px" viewBox="0 0 14 17" version="1.1" xmlns="http://www.w3.org/2000/svg" xmlns:xlink="http://www.w3.org/1999/xlink">
    <!-- Generator: sketchtool 52.4 (67378) - http://www.bohemiancoding.com/sketch -->
    <title>468474DA-1554-4C35-A378-0C01F7FBF354</title>
    <desc>Created with sketchtool.</desc>
    <g id="Page-1" stroke="none" stroke-width="1" fill="none" fill-rule="evenodd">
        <g id="Single" transform="translate(-1346.000000, -24.000000)">
            <g id="Group">
                <g id="pictoheader/notif" transform="translate(1346.000000, 24.000000)">
                    <rect id="Background" x="0" y="0" width="14" height="17"></rect>
                    <path d="M7,16.3333333 C7.91666667,16.3333333 8.66666667,15.5833333 8.66666667,14.6666667 L5.33333333,14.6666667 C5.33333333,15.5833333 6.075,16.3333333 7,16.3333333 Z M12,11.3333333 L12,7.16666667 C12,4.60833333 10.6333333,2.46666667 8.25,1.9 L8.25,1.33333333 C8.25,0.641666667 7.69166667,0.0833333333 7,0.0833333333 C6.30833333,0.0833333333 5.75,0.641666667 5.75,1.33333333 L5.75,1.9 C3.35833333,2.46666667 2,4.6 2,7.16666667 L2,11.3333333 L0.925,12.4083333 C0.4,12.9333333 0.766666667,13.8333333 1.50833333,13.8333333 L12.4833333,13.8333333 C13.225,13.8333333 13.6,12.9333333 13.075,12.4083333 L12,11.3333333 Z" id="Shape" fill="#6E6E6E" fill-rule="nonzero"></path>
                </g>
            </g>
        </g>
    </g>
</svg>