<?xml version="1.0" encoding="UTF-8"?>
<svg width="24px" height="24px" viewBox="0 0 24 24" version="1.1" xmlns="http://www.w3.org/2000/svg" xmlns:xlink="http://www.w3.org/1999/xlink">
    <!-- Generator: sketchtool 52.4 (67378) - http://www.bohemiancoding.com/sketch -->
    <title>9B2F27F4-A033-40C5-A82F-826FF052FFDF</title>
    <desc>Created with sketchtool.</desc>
    <g id="Page-1" stroke="none" stroke-width="1" fill="none" fill-rule="evenodd">
        <g id="Single2-pause" transform="translate(-391.000000, -551.000000)" fill="#FFFFFF" fill-rule="nonzero">
            <g id="VIDEO" transform="translate(0.000000, 51.000000)">
                <g id="barre_control" transform="translate(205.000000, 500.000000)">
                    <g id="pause" transform="translate(186.000000, 0.000000)">
                        <path d="M8.4,16.8 L10.8,16.8 L10.8,7.2 L8.4,7.2 L8.4,16.8 Z M12,0 C5.376,0 0,5.376 0,12 C0,18.624 5.376,24 12,24 C18.624,24 24,18.624 24,12 C24,5.376 18.624,0 12,0 Z M12,21.6 C6.708,21.6 2.4,17.292 2.4,12 C2.4,6.708 6.708,2.4 12,2.4 C17.292,2.4 21.6,6.708 21.6,12 C21.6,17.292 17.292,21.6 12,21.6 Z M13.2,16.8 L15.6,16.8 L15.6,7.2 L13.2,7.2 L13.2,16.8 Z" id="Shape"></path>
                    </g>
                </g>
            </g>
        </g>
    </g>
</svg>