<?xml version="1.0" encoding="UTF-8"?>
<svg width="47px" height="27px" viewBox="0 0 47 27" version="1.1" xmlns="http://www.w3.org/2000/svg" xmlns:xlink="http://www.w3.org/1999/xlink">
    <!-- Generator: sketchtool 52.4 (67378) - http://www.bohemiancoding.com/sketch -->
    <title>BEEDB6FB-4FFC-4E44-8FC0-32EC0B48499D</title>
    <desc>Created with sketchtool.</desc>
    <g id="Page-1" stroke="none" stroke-width="1" fill="none" fill-rule="evenodd">
        <g id="Single" transform="translate(-919.000000, -17.000000)">
            <g id="Group">
                <g id="Search" transform="translate(470.000000, 13.000000)">
                    <g id="Group" transform="translate(449.000000, 4.000000)">
                        <rect id="Rectangle" fill="#857F74" x="0" y="0" width="47" height="27" rx="13.5"></rect>
                        <g id="round-search-24px" transform="translate(15.000000, 4.000000)">
                            <polygon id="Path" points="0 0 19 0 19 19 0 19"></polygon>
                            <path d="M12.2708333,11.0833333 L11.6454167,11.0833333 L11.42375,10.8695833 C12.37375,9.76125 12.8645833,8.24916667 12.5954167,6.64208333 C12.2233333,4.44125 10.3866667,2.68375 8.17,2.41458333 C4.82125,2.00291667 2.00291667,4.82125 2.41458333,8.17 C2.68375,10.3866667 4.44125,12.2233333 6.64208333,12.5954167 C8.24916667,12.8645833 9.76125,12.37375 10.8695833,11.42375 L11.0833333,11.6454167 L11.0833333,12.2708333 L14.4479167,15.6354167 C14.7725,15.96 15.3029167,15.96 15.6275,15.6354167 C15.9520833,15.3108333 15.9520833,14.7804167 15.6275,14.4558333 L12.2708333,11.0833333 Z M7.52083333,11.0833333 C5.54958333,11.0833333 3.95833333,9.49208333 3.95833333,7.52083333 C3.95833333,5.54958333 5.54958333,3.95833333 7.52083333,3.95833333 C9.49208333,3.95833333 11.0833333,5.54958333 11.0833333,7.52083333 C11.0833333,9.49208333 9.49208333,11.0833333 7.52083333,11.0833333 Z" id="Shape" fill="#FFFFFF" fill-rule="nonzero"></path>
                        </g>
                    </g>
                </g>
            </g>
        </g>
    </g>
</svg>